{
 "cells": [
  {
   "cell_type": "code",
   "execution_count": 128,
   "metadata": {
    "collapsed": true
   },
   "outputs": [],
   "source": [
    "####\n",
    "# Filename:        genVideo.ipynb\n",
    "# Date:            Jan 02 2017\n",
    "# Last Edited by:  Gengshan Yang\n",
    "# Description:     Generate videos of detection, tracking and pose estimation\n",
    "#                  results. \n",
    "####\n",
    "\n",
    "import os\n",
    "import subprocess\n",
    "\n",
    "def mvRes(imgPath, imgList, subDirName):\n",
    "    \"\"\" move specified image results to given subfolder \"\"\"\n",
    "    dirName = os.path.join(imgPath, subDirName) \n",
    "    if os.path.exists(dirName):\n",
    "        return\n",
    "    else:\n",
    "        os.makedirs(dirName)\n",
    "        \n",
    "    imgList = sorted(imgList)\n",
    "    for it, name  in enumerate(imgList):\n",
    "        a = os.path.join(imgPath, name)\n",
    "        b = os.path.join(dirName, str(it).zfill(5) + \".jpg\")\n",
    "        os.rename(a, b)\n",
    "        \n",
    "def runFFMPEG(tbFilled):\n",
    "    \"\"\" concat specified frames to a video, and clean subfloder \"\"\"\n",
    "    cmd = 'ffmpeg -f image2 -r 20 -i data/' + tbFilled + '/%05d.jpg -vcodec mpeg4 -y data/' + tbFilled + '.mp4'\n",
    "    a = subprocess.check_output(cmd, shell=True, stderr=subprocess.STDOUT)\n",
    "    print a\n",
    "    \n",
    "    cmd = 'rm -rf data/' + tbFilled\n",
    "    a = subprocess.check_output(cmd, shell=True, stderr=subprocess.STDOUT)\n",
    "    print a"
   ]
  },
  {
   "cell_type": "code",
   "execution_count": 129,
   "metadata": {
    "collapsed": true
   },
   "outputs": [],
   "source": [
    "imgPath = \"/data/gengshan/handProj/\"  # specify output frame path"
   ]
  },
  {
   "cell_type": "code",
   "execution_count": 130,
   "metadata": {
    "collapsed": false
   },
   "outputs": [],
   "source": [
    "\"\"\" get a list of image names \"\"\"\n",
    "imgList = os.listdir(imgPath)\n",
    "detList = [x for x in imgList if (\"det\" in x) ]\n",
    "trkList = [x for x in imgList if (\"trk\" in x) ]\n",
    "posList = [x for x in imgList if (\"pos\" in x) ]\n",
    "objPosList = {}\n",
    "objIDs = list(set([x.split('_')[1] for x in posList]))\n",
    "for ID in objIDs:\n",
    "    objPosList[ID] = [x for x in posList if x.split('_')[1] == ID]"
   ]
  },
  {
   "cell_type": "code",
   "execution_count": 123,
   "metadata": {
    "collapsed": true
   },
   "outputs": [],
   "source": []
  },
  {
   "cell_type": "code",
   "execution_count": 97,
   "metadata": {
    "collapsed": false
   },
   "outputs": [],
   "source": [
    "mvRes(imgPath, detList, 'det')\n",
    "mvRes(imgPath, trkList, 'trk')\n",
    "for ID, val in objPosList.items():\n",
    "    mvRes(imgPath, val, 'pos_' + ID)"
   ]
  },
  {
   "cell_type": "code",
   "execution_count": 124,
   "metadata": {
    "collapsed": false
   },
   "outputs": [
    {
     "name": "stdout",
     "output_type": "stream",
     "text": [
      "ffmpeg version N-77182-gbd3409f Copyright (c) 2000-2015 the FFmpeg developers\n",
      "  built with gcc 4.8 (Ubuntu 4.8.4-2ubuntu1~14.04)\n",
      "  configuration: \n",
      "  libavutil      55. 10.100 / 55. 10.100\n",
      "  libavcodec     57. 17.100 / 57. 17.100\n",
      "  libavformat    57. 19.100 / 57. 19.100\n",
      "  libavdevice    57.  0.100 / 57.  0.100\n",
      "  libavfilter     6. 20.100 /  6. 20.100\n",
      "  libswscale      4.  0.100 /  4.  0.100\n",
      "  libswresample   2.  0.101 /  2.  0.101\n",
      "[mjpeg @ 0x2ce49c0] Changing bps to 8\n",
      "Input #0, image2, from 'data/det/%05d.jpg':\n",
      "  Duration: 00:00:03.25, start: 0.000000, bitrate: N/A\n",
      "    Stream #0:0: Video: mjpeg, yuvj420p(pc, bt470bg/unknown/unknown), 640x480 [SAR 1:1 DAR 4:3], 20 fps, 20 tbr, 20 tbn, 20 tbc\n",
      "[swscaler @ 0x2d108c0] deprecated pixel format used, make sure you did set range correctly\n",
      "Output #0, mp4, to 'data/det.mp4':\n",
      "  Metadata:\n",
      "    encoder         : Lavf57.19.100\n",
      "    Stream #0:0: Video: mpeg4 ( [0][0][0] / 0x0020), yuv420p, 640x480 [SAR 1:1 DAR 4:3], q=2-31, 200 kb/s, 20 fps, 10240 tbn, 20 tbc\n",
      "    Metadata:\n",
      "      encoder         : Lavc57.17.100 mpeg4\n",
      "Stream mapping:\n",
      "  Stream #0:0 -> #0:0 (mjpeg (native) -> mpeg4 (native))\n",
      "Press [q] to stop, [?] for help\n",
      "frame=   65 fps=0.0 q=23.3 Lsize=     248kB time=00:00:03.25 bitrate= 626.1kbits/s    \n",
      "video:247kB audio:0kB subtitle:0kB other streams:0kB global headers:0kB muxing overhead: 0.450630%\n",
      "\n",
      "\n",
      "ffmpeg version N-77182-gbd3409f Copyright (c) 2000-2015 the FFmpeg developers\n",
      "  built with gcc 4.8 (Ubuntu 4.8.4-2ubuntu1~14.04)\n",
      "  configuration: \n",
      "  libavutil      55. 10.100 / 55. 10.100\n",
      "  libavcodec     57. 17.100 / 57. 17.100\n",
      "  libavformat    57. 19.100 / 57. 19.100\n",
      "  libavdevice    57.  0.100 / 57.  0.100\n",
      "  libavfilter     6. 20.100 /  6. 20.100\n",
      "  libswscale      4.  0.100 /  4.  0.100\n",
      "  libswresample   2.  0.101 /  2.  0.101\n",
      "[mjpeg @ 0x39229c0] Changing bps to 8\n",
      "Input #0, image2, from 'data/trk/%05d.jpg':\n",
      "  Duration: 00:00:03.25, start: 0.000000, bitrate: N/A\n",
      "    Stream #0:0: Video: mjpeg, yuvj420p(pc, bt470bg/unknown/unknown), 640x480 [SAR 1:1 DAR 4:3], 20 fps, 20 tbr, 20 tbn, 20 tbc\n",
      "[swscaler @ 0x394de80] deprecated pixel format used, make sure you did set range correctly\n",
      "Output #0, mp4, to 'data/trk.mp4':\n",
      "  Metadata:\n",
      "    encoder         : Lavf57.19.100\n",
      "    Stream #0:0: Video: mpeg4 ( [0][0][0] / 0x0020), yuv420p, 640x480 [SAR 1:1 DAR 4:3], q=2-31, 200 kb/s, 20 fps, 10240 tbn, 20 tbc\n",
      "    Metadata:\n",
      "      encoder         : Lavc57.17.100 mpeg4\n",
      "Stream mapping:\n",
      "  Stream #0:0 -> #0:0 (mjpeg (native) -> mpeg4 (native))\n",
      "Press [q] to stop, [?] for help\n",
      "frame=   65 fps=0.0 q=16.5 Lsize=     293kB time=00:00:03.25 bitrate= 737.7kbits/s    \n",
      "video:292kB audio:0kB subtitle:0kB other streams:0kB global headers:0kB muxing overhead: 0.382178%\n",
      "\n",
      "\n",
      "ffmpeg version N-77182-gbd3409f Copyright (c) 2000-2015 the FFmpeg developers\n",
      "  built with gcc 4.8 (Ubuntu 4.8.4-2ubuntu1~14.04)\n",
      "  configuration: \n",
      "  libavutil      55. 10.100 / 55. 10.100\n",
      "  libavcodec     57. 17.100 / 57. 17.100\n",
      "  libavformat    57. 19.100 / 57. 19.100\n",
      "  libavdevice    57.  0.100 / 57.  0.100\n",
      "  libavfilter     6. 20.100 /  6. 20.100\n",
      "  libswscale      4.  0.100 /  4.  0.100\n",
      "  libswresample   2.  0.101 /  2.  0.101\n",
      "[mjpeg @ 0x37589c0] Changing bps to 8\n",
      "Input #0, image2, from 'data/pos_55/%05d.jpg':\n",
      "  Duration: 00:00:00.25, start: 0.000000, bitrate: N/A\n",
      "    Stream #0:0: Video: mjpeg, yuvj420p(pc, bt470bg/unknown/unknown), 640x480 [SAR 1:1 DAR 4:3], 20 fps, 20 tbr, 20 tbn, 20 tbc\n",
      "[swscaler @ 0x37774e0] deprecated pixel format used, make sure you did set range correctly\n",
      "Output #0, mp4, to 'data/pos_55.mp4':\n",
      "  Metadata:\n",
      "    encoder         : Lavf57.19.100\n",
      "    Stream #0:0: Video: mpeg4 ( [0][0][0] / 0x0020), yuv420p, 640x480 [SAR 1:1 DAR 4:3], q=2-31, 200 kb/s, 20 fps, 10240 tbn, 20 tbc\n",
      "    Metadata:\n",
      "      encoder         : Lavc57.17.100 mpeg4\n",
      "Stream mapping:\n",
      "  Stream #0:0 -> #0:0 (mjpeg (native) -> mpeg4 (native))\n",
      "Press [q] to stop, [?] for help\n",
      "frame=    5 fps=0.0 q=2.0 Lsize=      34kB time=00:00:00.25 bitrate=1129.0kbits/s    \n",
      "video:34kB audio:0kB subtitle:0kB other streams:0kB global headers:0kB muxing overhead: 2.561121%\n",
      "\n",
      "\n",
      "ffmpeg version N-77182-gbd3409f Copyright (c) 2000-2015 the FFmpeg developers\n",
      "  built with gcc 4.8 (Ubuntu 4.8.4-2ubuntu1~14.04)\n",
      "  configuration: \n",
      "  libavutil      55. 10.100 / 55. 10.100\n",
      "  libavcodec     57. 17.100 / 57. 17.100\n",
      "  libavformat    57. 19.100 / 57. 19.100\n",
      "  libavdevice    57.  0.100 / 57.  0.100\n",
      "  libavfilter     6. 20.100 /  6. 20.100\n",
      "  libswscale      4.  0.100 /  4.  0.100\n",
      "  libswresample   2.  0.101 /  2.  0.101\n",
      "[mjpeg @ 0x30f79c0] Changing bps to 8\n",
      "Input #0, image2, from 'data/pos_0/%05d.jpg':\n",
      "  Duration: 00:00:03.20, start: 0.000000, bitrate: N/A\n",
      "    Stream #0:0: Video: mjpeg, yuvj420p(pc, bt470bg/unknown/unknown), 640x480 [SAR 1:1 DAR 4:3], 20 fps, 20 tbr, 20 tbn, 20 tbc\n",
      "[swscaler @ 0x31215a0] deprecated pixel format used, make sure you did set range correctly\n",
      "Output #0, mp4, to 'data/pos_0.mp4':\n",
      "  Metadata:\n",
      "    encoder         : Lavf57.19.100\n",
      "    Stream #0:0: Video: mpeg4 ( [0][0][0] / 0x0020), yuv420p, 640x480 [SAR 1:1 DAR 4:3], q=2-31, 200 kb/s, 20 fps, 10240 tbn, 20 tbc\n",
      "    Metadata:\n",
      "      encoder         : Lavc57.17.100 mpeg4\n",
      "Stream mapping:\n",
      "  Stream #0:0 -> #0:0 (mjpeg (native) -> mpeg4 (native))\n",
      "Press [q] to stop, [?] for help\n",
      "frame=   64 fps=0.0 q=12.9 Lsize=     312kB time=00:00:03.20 bitrate= 800.0kbits/s    \n",
      "video:311kB audio:0kB subtitle:0kB other streams:0kB global headers:0kB muxing overhead: 0.356600%\n",
      "\n",
      "\n",
      "ffmpeg version N-77182-gbd3409f Copyright (c) 2000-2015 the FFmpeg developers\n",
      "  built with gcc 4.8 (Ubuntu 4.8.4-2ubuntu1~14.04)\n",
      "  configuration: \n",
      "  libavutil      55. 10.100 / 55. 10.100\n",
      "  libavcodec     57. 17.100 / 57. 17.100\n",
      "  libavformat    57. 19.100 / 57. 19.100\n",
      "  libavdevice    57.  0.100 / 57.  0.100\n",
      "  libavfilter     6. 20.100 /  6. 20.100\n",
      "  libswscale      4.  0.100 /  4.  0.100\n",
      "  libswresample   2.  0.101 /  2.  0.101\n",
      "[mjpeg @ 0x2e8c9c0] Changing bps to 8\n",
      "Input #0, image2, from 'data/pos_45/%05d.jpg':\n",
      "  Duration: 00:00:01.00, start: 0.000000, bitrate: N/A\n",
      "    Stream #0:0: Video: mjpeg, yuvj420p(pc, bt470bg/unknown/unknown), 640x480 [SAR 1:1 DAR 4:3], 20 fps, 20 tbr, 20 tbn, 20 tbc\n",
      "[swscaler @ 0x2eaede0] deprecated pixel format used, make sure you did set range correctly\n",
      "Output #0, mp4, to 'data/pos_45.mp4':\n",
      "  Metadata:\n",
      "    encoder         : Lavf57.19.100\n",
      "    Stream #0:0: Video: mpeg4 ( [0][0][0] / 0x0020), yuv420p, 640x480 [SAR 1:1 DAR 4:3], q=2-31, 200 kb/s, 20 fps, 10240 tbn, 20 tbc\n",
      "    Metadata:\n",
      "      encoder         : Lavc57.17.100 mpeg4\n",
      "Stream mapping:\n",
      "  Stream #0:0 -> #0:0 (mjpeg (native) -> mpeg4 (native))\n",
      "Press [q] to stop, [?] for help\n",
      "frame=   20 fps=0.0 q=2.0 Lsize=     105kB time=00:00:01.00 bitrate= 863.7kbits/s    \n",
      "video:105kB audio:0kB subtitle:0kB other streams:0kB global headers:0kB muxing overhead: 0.883013%\n",
      "\n",
      "\n",
      "ffmpeg version N-77182-gbd3409f Copyright (c) 2000-2015 the FFmpeg developers\n",
      "  built with gcc 4.8 (Ubuntu 4.8.4-2ubuntu1~14.04)\n",
      "  configuration: \n",
      "  libavutil      55. 10.100 / 55. 10.100\n",
      "  libavcodec     57. 17.100 / 57. 17.100\n",
      "  libavformat    57. 19.100 / 57. 19.100\n",
      "  libavdevice    57.  0.100 / 57.  0.100\n",
      "  libavfilter     6. 20.100 /  6. 20.100\n",
      "  libswscale      4.  0.100 /  4.  0.100\n",
      "  libswresample   2.  0.101 /  2.  0.101\n",
      "[mjpeg @ 0x302c9c0] Changing bps to 8\n",
      "Input #0, image2, from 'data/pos_20/%05d.jpg':\n",
      "  Duration: 00:00:01.00, start: 0.000000, bitrate: N/A\n",
      "    Stream #0:0: Video: mjpeg, yuvj420p(pc, bt470bg/unknown/unknown), 640x480 [SAR 1:1 DAR 4:3], 20 fps, 20 tbr, 20 tbn, 20 tbc\n",
      "[swscaler @ 0x30536c0] deprecated pixel format used, make sure you did set range correctly\n",
      "Output #0, mp4, to 'data/pos_20.mp4':\n",
      "  Metadata:\n",
      "    encoder         : Lavf57.19.100\n",
      "    Stream #0:0: Video: mpeg4 ( [0][0][0] / 0x0020), yuv420p, 640x480 [SAR 1:1 DAR 4:3], q=2-31, 200 kb/s, 20 fps, 10240 tbn, 20 tbc\n",
      "    Metadata:\n",
      "      encoder         : Lavc57.17.100 mpeg4\n",
      "Stream mapping:\n",
      "  Stream #0:0 -> #0:0 (mjpeg (native) -> mpeg4 (native))\n",
      "Press [q] to stop, [?] for help\n",
      "frame=   20 fps=0.0 q=2.0 Lsize=     126kB time=00:00:01.00 bitrate=1028.2kbits/s    \n",
      "video:125kB audio:0kB subtitle:0kB other streams:0kB global headers:0kB muxing overhead: 0.740677%\n",
      "\n",
      "\n",
      "ffmpeg version N-77182-gbd3409f Copyright (c) 2000-2015 the FFmpeg developers\n",
      "  built with gcc 4.8 (Ubuntu 4.8.4-2ubuntu1~14.04)\n",
      "  configuration: \n",
      "  libavutil      55. 10.100 / 55. 10.100\n",
      "  libavcodec     57. 17.100 / 57. 17.100\n",
      "  libavformat    57. 19.100 / 57. 19.100\n",
      "  libavdevice    57.  0.100 / 57.  0.100\n",
      "  libavfilter     6. 20.100 /  6. 20.100\n",
      "  libswscale      4.  0.100 /  4.  0.100\n",
      "  libswresample   2.  0.101 /  2.  0.101\n",
      "[mjpeg @ 0x371d9c0] Changing bps to 8\n",
      "Input #0, image2, from 'data/pos_25/%05d.jpg':\n",
      "  Duration: 00:00:01.00, start: 0.000000, bitrate: N/A\n",
      "    Stream #0:0: Video: mjpeg, yuvj420p(pc, bt470bg/unknown/unknown), 640x480 [SAR 1:1 DAR 4:3], 20 fps, 20 tbr, 20 tbn, 20 tbc\n",
      "[swscaler @ 0x373eec0] deprecated pixel format used, make sure you did set range correctly\n",
      "Output #0, mp4, to 'data/pos_25.mp4':\n",
      "  Metadata:\n",
      "    encoder         : Lavf57.19.100\n",
      "    Stream #0:0: Video: mpeg4 ( [0][0][0] / 0x0020), yuv420p, 640x480 [SAR 1:1 DAR 4:3], q=2-31, 200 kb/s, 20 fps, 10240 tbn, 20 tbc\n",
      "    Metadata:\n",
      "      encoder         : Lavc57.17.100 mpeg4\n",
      "Stream mapping:\n",
      "  Stream #0:0 -> #0:0 (mjpeg (native) -> mpeg4 (native))\n",
      "Press [q] to stop, [?] for help\n",
      "frame=   20 fps=0.0 q=2.0 Lsize=     101kB time=00:00:01.00 bitrate= 823.8kbits/s    \n",
      "video:100kB audio:0kB subtitle:0kB other streams:0kB global headers:0kB muxing overhead: 0.926225%\n",
      "\n",
      "\n"
     ]
    }
   ],
   "source": [
    "runFFMPEG('det')\n",
    "runFFMPEG('trk')\n",
    "for ID, val in objPosList.items():\n",
    "    runFFMPEG('pos_' + ID)"
   ]
  }
 ],
 "metadata": {
  "kernelspec": {
   "display_name": "Python 2",
   "language": "python",
   "name": "python2"
  },
  "language_info": {
   "codemirror_mode": {
    "name": "ipython",
    "version": 2
   },
   "file_extension": ".py",
   "mimetype": "text/x-python",
   "name": "python",
   "nbconvert_exporter": "python",
   "pygments_lexer": "ipython2",
   "version": "2.7.6"
  }
 },
 "nbformat": 4,
 "nbformat_minor": 1
}
